<?xml version="1.0" encoding="utf-8"?>
<!-- Generator: Adobe Illustrator 19.2.1, SVG Export Plug-In . SVG Version: 6.00 Build 0)  -->
<svg version="1.1" id="Calque_1" xmlns="http://www.w3.org/2000/svg" xmlns:xlink="http://www.w3.org/1999/xlink" x="0px" y="0px"
	 viewBox="0 0 1303.8 175" style="enable-background:new 0 0 1303.8 175;" xml:space="preserve">
<style type="text/css">
	.st0{enable-background:new    ;}
</style>
<g class="st0">
	<path d="M683.2,48.9v27.9h0.4c1-4.4,2.6-8.4,4.8-12.1c2.2-3.7,4.9-6.9,8.1-9.7c3.2-2.8,6.8-4.9,10.7-6.5c3.9-1.5,8-2.3,12.4-2.3
		c8.8-0.3,16.2,1.9,22.1,6.7c5.9,4.8,9.9,11.3,11.8,19.7h0.4c2.2-7.9,6.5-14.3,13-19.1c6.4-4.8,14.1-7.3,22.9-7.3
		c6.9,0,12.6,1,17.1,3.1c4.5,2.1,8.2,4.9,11,8.5c2.8,3.6,4.8,7.9,5.9,13c1.2,5.1,1.8,10.7,1.8,16.8v74.3h-4.4V87.5
		c0-5.6-0.5-10.6-1.4-15.2c-1-4.5-2.6-8.4-5.1-11.7c-2.4-3.2-5.6-5.7-9.7-7.5c-4-1.8-9.1-2.6-15.3-2.6c-5.4,0-10.3,1.1-14.7,3.2
		c-4.4,2.1-8.1,5-11.2,8.7c-3.1,3.7-5.4,7.9-7,12.6c-1.6,4.8-2.4,9.8-2.4,15.1v71.7H750V89.3c0-5.3-0.4-10.3-1.2-14.9
		c-0.8-4.7-2.3-8.8-4.5-12.3c-2.2-3.5-5.3-6.3-9.2-8.4c-4-2.1-9.1-3.1-15.4-3.1c-5.6,0-10.6,1.3-15.2,3.8c-4.5,2.6-8.4,6-11.5,10.3
		c-3.2,4.3-5.6,9.3-7.3,15.1c-1.7,5.7-2.5,11.7-2.5,18v64h-4.4v-113H683.2z"/>
</g>
<g class="st0">
	<path d="M1047,161.8l-19.6-24.8c-4.4,8.1-10.4,14.8-17.9,20.2c-7.5,5.4-16.9,8.1-28,8.1c-5.4,0-10.8-0.9-16.3-2.6
		c-5.4-1.8-10.2-4.3-14.4-7.6c-4.2-3.3-7.6-7.3-10.2-12.1c-2.6-4.8-4-10.2-4-16.4c0-6.4,1.3-12.2,4-17.3s6-9.6,10.1-13.7
		c4.1-4.1,8.6-7.8,13.6-11.1c5-3.3,9.8-6.4,14.5-9.3c-2.2-3.1-4.6-6.3-7.3-9.6c-2.6-3.3-5.2-6.7-7.6-10.1c-2.4-3.4-4.4-7-6-10.6
		c-1.6-3.6-2.4-7.2-2.4-10.9c0-5.1,1-9.5,2.9-13.2c1.9-3.7,4.4-6.7,7.4-9c3-2.3,6.4-4.1,10.2-5.3c3.8-1.2,7.7-1.8,11.7-1.8
		c4.4,0,8.5,0.7,12.4,2c3.9,1.3,7.3,3.2,10.2,5.7c2.9,2.5,5.2,5.5,6.9,9.1c1.7,3.6,2.5,7.7,2.5,12.4c0,5.3-1.1,9.9-3.4,14
		c-2.3,4-5.1,7.7-8.5,11c-3.4,3.3-7.1,6.3-11.2,9.1c-4.1,2.8-7.9,5.5-11.4,8.1l41.3,52.3c1.5-3.2,2.8-7.2,4-11.9
		c1.2-4.7,1.6-10,1.3-15.8h4.4c0.1,6.6-0.4,12.3-1.5,17c-1.2,4.8-2.9,9.6-5.1,14.6l23.1,29.2H1047z M967.8,87.5
		c-4.8,3.1-9.1,6.5-13.1,10.2c-4,3.7-7.2,8-9.8,12.6c-2.6,4.7-3.8,10.1-3.8,16.3c0,5.6,1.2,10.5,3.5,14.8c2.3,4.3,5.4,8,9.1,10.9
		c3.7,2.9,8.1,5.1,13,6.6c4.9,1.5,9.9,2.2,14.8,2.2c10.6,0,19.3-2.6,26.4-7.9c7-5.3,12.6-12.1,16.7-20.4l-43.1-54.1
		C977.1,81.5,972.5,84.5,967.8,87.5z M961.3,41.2c0.9,2.5,2.2,5.2,4.1,8.2c1.8,3,4.2,6.4,7,10.2c2.9,3.8,6.3,8.3,10.2,13.4
		c3.1-2.2,6.5-4.6,10.3-7.3c3.8-2.6,7.4-5.5,10.7-8.7c3.3-3.1,6.1-6.6,8.4-10.4c2.3-3.8,3.4-8,3.4-12.5c0-3.8-0.7-7.3-2.2-10.3
		c-1.5-3.1-3.5-5.7-6-7.8c-2.6-2.1-5.5-3.8-8.8-4.9c-3.3-1.2-6.8-1.8-10.4-1.8c-3.8,0-7.4,0.5-10.8,1.6c-3.4,1.1-6.3,2.7-8.9,4.8
		c-2.6,2.1-4.6,4.7-6,7.7c-1.5,3-2.2,6.4-2.2,10.2C960,36.2,960.4,38.7,961.3,41.2z"/>
</g>
<g class="st0">
	<path d="M1118,27.1V4.9h4.4v22.2H1118z M1118,161.8v-113h4.4v113H1118z"/>
</g>
<g class="st0">
	<path d="M1257.4,4.9v157h-4.4v-31.7h-0.4c-2.9,10.1-8.3,18.3-16.2,24.6c-7.8,6.3-17.6,9.5-29.1,9.5c-7.5,0-14.2-1.5-20.1-4.4
		c-5.9-2.9-11-7-15.2-12.2c-4.2-5.2-7.4-11.4-9.6-18.6c-2.2-7.2-3.3-15-3.3-23.5c0-7.9,1.1-15.5,3.2-22.6c2.1-7.2,5.2-13.5,9.2-18.9
		c4-5.4,9-9.7,15.1-13c6-3.2,12.9-4.8,20.7-4.8c12,0,21.9,3.2,29.7,9.5c7.8,6.3,13,14.6,15.6,24.8h0.4V4.9H1257.4z M1240.4,64.8
		c-8.4-9.5-19.4-14.2-33.2-14.2c-7.6,0-14.2,1.6-19.8,4.9c-5.6,3.3-10.1,7.5-13.6,12.8c-3.5,5.2-6.1,11.1-7.8,17.6
		c-1.7,6.5-2.5,13.1-2.5,19.7c0,7.2,0.9,14.1,2.7,20.7c1.8,6.6,4.5,12.4,8.1,17.5c3.6,5.1,8.1,9,13.6,12c5.5,2.9,11.9,4.4,19.2,4.4
		c7.3,0,13.8-1.5,19.5-4.4c5.6-2.9,10.4-6.9,14.3-11.9c3.9-5,6.8-10.8,8.9-17.4c2.1-6.6,3.1-13.6,3.1-20.9
		C1253,87.8,1248.8,74.2,1240.4,64.8z"/>
</g>
<path d="M492.6,161h31.6V3h-31.6V161z M319.3,80.2c0.5-5.4,2-8.8,5.4-11.7c3.8-3.2,9.3-4.7,16-4.7c12.9,0,19.6,5.2,19.6,13.8
	c0,6.3-2.5,9.3-10.8,10.4l-5.2,0.7c-24.8,3.6-59.4,8.4-59.4,39c0,22.6,19.4,36.6,44.2,36.6c20.3,0,29.3-7.2,34.8-12.4h0.2l0.7,9.3
	h28.7v-0.7c-2-3.6-2.7-7.7-2.7-15.3V90.6c0-11.1-0.9-18.1-2.7-23.7c-6.1-19.2-26.4-25.7-46.5-25.7c-28.2,0-49.4,12-51,38.6
	L319.3,80.2z M335.8,141.6c-12,0-19.4-5.2-19.4-14.9c0-3.6,1.4-6.8,3.6-9c3.2-3.2,9.3-5.2,17.8-7.4l7-1.8c8.1-2,14-3.6,16.7-4.7V118
	c0,5.6-0.5,7.7-1.1,9.7C356.7,137.7,345.9,141.6,335.8,141.6 M239.8,83.6c-3.2-25.5-24.1-42.4-53.3-42.4
	c-36.8,0-59.6,25.5-59.6,61.4c0,36.8,21.2,61.4,59.4,61.4c30.2,0,49.9-17.2,54.4-42.4H210c-2.7,9.3-8.6,18.1-23,18.1
	c-16.5,0-27.5-11.3-27.5-36.8c0-24.4,10.6-37.5,26.9-37.5c13.5,0,20.5,9,22.3,18.3C208.7,83.6,239.8,83.6,239.8,83.6z M62.5,64.2
	c15.8,0,25.5,11.1,26,26h-52C37.9,75.2,47.3,64.2,62.5,64.2 M86.8,127.1c-3.4,6.3-10.2,12.6-22.8,12.6c-14.4,0-26.4-8.6-28-28.9
	h84.2v-2.9c0-38.1-19-66.8-57.8-66.8C26.8,41.1,4,67.5,4,102.5s21.7,61.4,59.6,61.4c28,0,47.2-14.7,55.3-36.8
	C118.9,127.1,86.8,127.1,86.8,127.1z M98.6,3H60.2L44.8,32.1H73L98.6,3z"/>
</svg>
