<?xml version="1.0" encoding="utf-8"?>
<!-- Generator: Adobe Illustrator 19.2.1, SVG Export Plug-In . SVG Version: 6.00 Build 0)  -->
<svg version="1.1" id="Calque_1" xmlns="http://www.w3.org/2000/svg" xmlns:xlink="http://www.w3.org/1999/xlink" x="0px" y="0px"
	 viewBox="0 0 1502.3 175" style="enable-background:new 0 0 1502.3 175;" xml:space="preserve">
<path d="M492.6,161h31.6V3h-31.6V161z M319.3,80.2c0.5-5.4,2-8.8,5.4-11.7c3.8-3.2,9.3-4.7,16-4.7c12.9,0,19.6,5.2,19.6,13.8
	c0,6.3-2.5,9.3-10.8,10.4l-5.2,0.7c-24.8,3.6-59.4,8.4-59.4,39c0,22.6,19.4,36.6,44.2,36.6c20.3,0,29.3-7.2,34.8-12.4h0.2l0.7,9.3
	h28.7v-0.7c-2-3.6-2.7-7.7-2.7-15.3V90.6c0-11.1-0.9-18.1-2.7-23.7c-6.1-19.2-26.4-25.7-46.5-25.7c-28.2,0-49.4,12-51,38.6
	L319.3,80.2z M335.8,141.6c-12,0-19.4-5.2-19.4-14.9c0-3.6,1.4-6.8,3.6-9c3.2-3.2,9.3-5.2,17.8-7.4l7-1.8c8.1-2,14-3.6,16.7-4.7V118
	c0,5.6-0.5,7.7-1.1,9.7C356.7,137.7,345.9,141.6,335.8,141.6 M239.8,83.6c-3.2-25.5-24.1-42.4-53.3-42.4
	c-36.8,0-59.6,25.5-59.6,61.4c0,36.8,21.2,61.4,59.4,61.4c30.2,0,49.9-17.2,54.4-42.4H210c-2.7,9.3-8.6,18.1-23,18.1
	c-16.5,0-27.5-11.3-27.5-36.8c0-24.4,10.6-37.5,26.9-37.5c13.5,0,20.5,9,22.3,18.3C208.7,83.6,239.8,83.6,239.8,83.6z M62.5,64.2
	c15.8,0,25.5,11.1,26,26h-52C37.9,75.2,47.3,64.2,62.5,64.2 M86.8,127.1c-3.4,6.3-10.2,12.6-22.8,12.6c-14.4,0-26.4-8.6-28-28.9
	h84.2v-2.9c0-38.1-19-66.8-57.8-66.8C26.8,41.1,4,67.5,4,102.5s21.7,61.4,59.6,61.4c28,0,47.2-14.7,55.3-36.8
	C118.9,127.1,86.8,127.1,86.8,127.1z M98.6,3H60.2L44.8,32.1H73L98.6,3z"/>
<g>
	<path d="M664,88.8h13.7l20.4,59.9l20.2-59.9H732v70.8h-9.2v-41.8c0-1.4,0-3.8,0.1-7.2c0.1-3.3,0.1-6.9,0.1-10.7l-20.2,59.7h-9.5
		l-20.4-59.7v2.2c0,1.7,0,4.4,0.1,7.9c0.1,3.6,0.1,6.2,0.1,7.8v41.8H664V88.8z"/>
	<path d="M753.2,111.5c-1-2.3-1.5-4.6-1.5-6.8c0-4.6,1.5-8.3,4.6-11.3c3.1-3,7.2-4.5,12.3-4.5c4.9,0,8.7,1.4,11.5,4.2
		c2.8,2.8,4.1,6.1,4.1,10c0,4.5-1.4,8.5-4.3,11.9c-1.7,2-4.4,4.3-8.3,6.9l12.9,15.4c0.9-2.6,1.4-4.5,1.8-5.8c0.3-1.3,0.7-3,1-5.3
		h8.2c-0.5,4.5-1.6,8.9-3.3,13c-1.6,4.2-2.4,5.8-2.4,5l12.5,15.3h-11.2l-6.6-8.1c-2.6,2.9-5,4.9-7.2,6.3c-3.8,2.3-8.2,3.5-13.2,3.5
		c-7.3,0-12.7-2-16-6c-3.3-4-5-8.4-5-13.4c0-5.4,1.6-9.8,4.9-13.4c2-2.2,5.7-4.9,11.1-8.2C756.2,116.8,754.2,113.9,753.2,111.5z
		 M774,151.1c2.6-1.6,4.5-3.5,5.9-5.5L764,126.1c-4.5,3-7.4,5.3-8.8,6.9c-2.1,2.4-3.2,5.3-3.2,8.8c0,3.8,1.4,6.7,4.1,8.7
		s5.7,3,8.8,3C768.4,153.6,771.5,152.8,774,151.1z M773.4,111c1.9-2.2,2.8-4.6,2.8-7.3c0-2.1-0.7-3.9-2.1-5.4
		c-1.4-1.5-3.2-2.3-5.6-2.3c-3.5,0-6,1.2-7.4,3.6c-0.7,1.2-1.1,2.6-1.1,4c0,2,0.5,3.8,1.6,5.6c1.1,1.8,2.9,4.1,5.4,7
		C770.1,114.1,772.2,112.4,773.4,111z"/>
	<path d="M814.5,88.8h9.7v70.8h-9.7V88.8z"/>
	<path d="M840.2,88.8h28.3c9.6,0,17.1,3.5,22.4,10.4c4.7,6.2,7.1,14.2,7.1,24c0,7.5-1.4,14.3-4.2,20.4
		c-4.9,10.7-13.4,16.1-25.3,16.1h-28.2V88.8z M866.6,151.4c3.2,0,5.8-0.3,7.8-1c3.6-1.3,6.6-3.7,9-7.2c1.9-2.9,3.2-6.5,4-11
		c0.5-2.7,0.7-5.1,0.7-7.4c0-8.8-1.7-15.6-5.1-20.4c-3.4-4.9-8.9-7.3-16.5-7.3h-16.6v54.4H866.6z"/>
	<path d="M988.5,93.9c4.9,4.7,7.6,10.1,8.1,16.1h-9.3c-1-4.6-3.1-8.2-6.2-10.8c-3.1-2.7-7.5-4-13.1-4c-6.8,0-12.4,2.5-16.6,7.4
		c-4.2,4.9-6.3,12.4-6.3,22.5c0,8.3,1.9,15,5.7,20.2c3.8,5.2,9.5,7.7,17,7.7c6.9,0,12.2-2.7,15.9-8.1c1.9-2.9,3.4-6.6,4.3-11.3h9.3
		c-0.8,7.5-3.6,13.7-8.2,18.7c-5.6,6.1-13.1,9.1-22.5,9.1c-8.1,0-15-2.5-20.5-7.5c-7.3-6.6-10.9-16.8-10.9-30.5
		c0-10.4,2.7-19,8.2-25.7c5.9-7.3,14.1-10.9,24.4-10.9C976.7,86.9,983.6,89.2,988.5,93.9z"/>
	<path d="M1030.4,88.8h10.8l25.7,70.8h-10.5l-7.4-21.2h-27.8l-7.7,21.2h-9.8L1030.4,88.8z M1046.3,130.6l-10.9-31.3l-11.3,31.3
		H1046.3z"/>
	<path d="M1075.5,88.8h9.6v62.4h35.5v8.4h-45.1V88.8z"/>
	<path d="M1131.3,88.8h51.4v8.7h-42V119h38.8v8.2h-38.8v24h42.7v8.4h-52.1V88.8z"/>
	<path d="M1196.3,88.8h11.3l35.3,57.2V88.8h9.2v70.8h-10.8l-35.8-57.1v57.1h-9.2V88.8z"/>
	<path d="M1268,88.8h28.3c9.6,0,17.1,3.5,22.4,10.4c4.7,6.2,7.1,14.2,7.1,24c0,7.5-1.4,14.3-4.2,20.4c-4.9,10.7-13.4,16.1-25.3,16.1
		H1268V88.8z M1294.4,151.4c3.2,0,5.8-0.3,7.8-1c3.6-1.3,6.6-3.7,9-7.2c1.9-2.9,3.2-6.5,4-11c0.5-2.7,0.7-5.1,0.7-7.4
		c0-8.8-1.7-15.6-5.1-20.4c-3.4-4.9-8.9-7.3-16.5-7.3h-16.6v54.4H1294.4z"/>
	<path d="M1359.5,88.8h10.8l25.7,70.8h-10.5l-7.4-21.2h-27.8l-7.7,21.2h-9.8L1359.5,88.8z M1375.4,130.6l-10.9-31.3l-11.3,31.3
		H1375.4z"/>
	<path d="M1405.8,88.8h32.2c5.3,0,9.7,0.8,13.1,2.4c6.5,3,9.8,8.6,9.8,16.7c0,4.2-0.9,7.7-2.6,10.4c-1.8,2.7-4.2,4.9-7.3,6.5
		c2.8,1.1,4.8,2.6,6.2,4.4s2.2,4.8,2.3,8.9l0.3,9.5c0.1,2.7,0.3,4.7,0.7,6c0.6,2.2,1.6,3.7,3.1,4.3v1.6h-11.8
		c-0.3-0.6-0.6-1.4-0.8-2.4c-0.2-1-0.4-2.8-0.5-5.6l-0.6-11.8c-0.2-4.6-1.9-7.7-5-9.3c-1.8-0.9-4.6-1.3-8.4-1.3h-21.2v30.4h-9.6
		V88.8z M1436.9,121.2c4.4,0,7.8-0.9,10.4-2.7c2.5-1.8,3.8-5,3.8-9.7c0-5-1.8-8.5-5.3-10.3c-1.9-1-4.5-1.4-7.6-1.4h-22.8v24.2
		H1436.9z"/>
</g>
</svg>
